<svg xmlns="http://www.w3.org/2000/svg" viewBox="0 0 800 600" fill="none">
  <defs>
    <linearGradient id="gradient1" x1="0%" y1="0%" x2="100%" y2="100%">
      <stop offset="0%" style="stop-color:#3b82f6;stop-opacity:0.8"/>
      <stop offset="100%" style="stop-color:#1e3a8a;stop-opacity:0.9"/>
    </linearGradient>
    <linearGradient id="gradient2" x1="0%" y1="0%" x2="100%" y2="100%">
      <stop offset="0%" style="stop-color:#f59e0b;stop-opacity:0.8"/>
      <stop offset="100%" style="stop-color:#ea580c;stop-opacity:0.9"/>
    </linearGradient>
  </defs>
  
  <!-- Background elements -->
  <rect width="800" height="600" fill="url(#gradient1)" opacity="0.1"/>
  
  <!-- Digital screens and devices -->
  <rect x="100" y="80" width="200" height="120" rx="8" fill="url(#gradient1)" opacity="0.7"/>
  <rect x="110" y="90" width="180" height="80" rx="4" fill="#ffffff" opacity="0.9"/>
  <rect x="120" y="100" width="40" height="6" rx="3" fill="url(#gradient2)"/>
  <rect x="120" y="115" width="60" height="6" rx="3" fill="#e5e7eb"/>
  <rect x="120" y="130" width="30" height="6" rx="3" fill="#e5e7eb"/>
  <rect x="120" y="145" width="50" height="6" rx="3" fill="#e5e7eb"/>
  
  <!-- Mobile device -->
  <rect x="350" y="150" width="80" height="140" rx="15" fill="url(#gradient1)" opacity="0.8"/>
  <rect x="360" y="170" width="60" height="100" rx="8" fill="#ffffff" opacity="0.9"/>
  <circle cx="390" cy="185" r="4" fill="url(#gradient2)"/>
  <rect x="370" y="200" width="40" height="3" rx="1.5" fill="#e5e7eb"/>
  <rect x="370" y="210" width="30" height="3" rx="1.5" fill="#e5e7eb"/>
  <rect x="370" y="220" width="35" height="3" rx="1.5" fill="#e5e7eb"/>
  
  <!-- Laptop -->
  <ellipse cx="550" cy="350" rx="120" ry="8" fill="url(#gradient1)" opacity="0.3"/>
  <rect x="450" y="250" width="200" height="120" rx="8" fill="url(#gradient1)" opacity="0.8"/>
  <rect x="460" y="260" width="180" height="100" rx="4" fill="#ffffff" opacity="0.9"/>
  <rect x="470" y="270" width="30" height="4" rx="2" fill="url(#gradient2)"/>
  <rect x="470" y="280" width="50" height="4" rx="2" fill="#e5e7eb"/>
  <rect x="470" y="290" width="40" height="4" rx="2" fill="#e5e7eb"/>
  <rect x="470" y="300" width="60" height="4" rx="2" fill="#e5e7eb"/>
  
  <!-- Chart/Analytics elements -->
  <g transform="translate(520, 280)">
    <rect x="0" y="50" width="8" height="30" fill="url(#gradient2)" opacity="0.8"/>
    <rect x="12" y="40" width="8" height="40" fill="url(#gradient2)" opacity="0.6"/>
    <rect x="24" y="30" width="8" height="50" fill="url(#gradient2)" opacity="0.8"/>
    <rect x="36" y="45" width="8" height="35" fill="url(#gradient2)" opacity="0.6"/>
    <rect x="48" y="25" width="8" height="55" fill="url(#gradient2)" opacity="0.8"/>
  </g>
  
  <!-- Floating elements -->
  <circle cx="150" cy="300" r="20" fill="url(#gradient2)" opacity="0.6"/>
  <circle cx="170" cy="320" r="8" fill="url(#gradient2)" opacity="0.4"/>
  <circle cx="680" cy="180" r="15" fill="url(#gradient2)" opacity="0.5"/>
  <circle cx="700" cy="200" r="6" fill="url(#gradient2)" opacity="0.3"/>
  
  <!-- Network connections -->
  <g stroke="url(#gradient2)" stroke-width="2" fill="none" opacity="0.4">
    <path d="M200 200 Q250 180 300 200"/>
    <path d="M430 200 Q480 180 530 200"/>
    <path d="M300 250 Q350 230 400 250"/>
  </g>
  
  <!-- Icons and symbols -->
  <g transform="translate(50, 400)">
    <circle cx="20" cy="20" r="18" fill="url(#gradient1)" opacity="0.7"/>
    <path d="M15 20 L20 25 L25 15" stroke="#ffffff" stroke-width="2" fill="none"/>
  </g>
  
  <g transform="translate(150, 450)">
    <circle cx="20" cy="20" r="18" fill="url(#gradient2)" opacity="0.7"/>
    <rect x="12" y="12" width="16" height="16" rx="2" fill="#ffffff" opacity="0.9"/>
    <rect x="14" y="14" width="4" height="4" fill="url(#gradient1)"/>
    <rect x="20" y="14" width="4" height="4" fill="url(#gradient1)"/>
    <rect x="14" y="20" width="4" height="4" fill="url(#gradient1)"/>
    <rect x="20" y="20" width="4" height="4" fill="url(#gradient1)"/>
  </g>
  
  <!-- Digital particles -->
  <g opacity="0.3">
    <circle cx="600" cy="100" r="2" fill="url(#gradient2)"/>
    <circle cx="620" cy="120" r="1.5" fill="url(#gradient2)"/>
    <circle cx="640" cy="90" r="1" fill="url(#gradient2)"/>
    <circle cx="80" cy="450" r="2" fill="url(#gradient1)"/>
    <circle cx="100" cy="470" r="1.5" fill="url(#gradient1)"/>
    <circle cx="120" cy="440" r="1" fill="url(#gradient1)"/>
  </g>
  
  <!-- Modern geometric shapes -->
  <polygon points="720,300 740,280 760,300 740,320" fill="url(#gradient1)" opacity="0.5"/>
  <polygon points="60,200 80,180 100,200 80,220" fill="url(#gradient2)" opacity="0.4"/>
  
  <!-- Wave pattern -->
  <path d="M0 500 Q100 480 200 500 T400 500 T600 500 T800 500 V600 H0 Z" fill="url(#gradient1)" opacity="0.1"/>
</svg>
